<?xml version="1.0" encoding="iso-8859-1"?>
<!-- Generator: Adobe Illustrator 16.0.0, SVG Export Plug-In . SVG Version: 6.00 Build 0)  -->
<!DOCTYPE svg PUBLIC "-//W3C//DTD SVG 1.1//EN" "http://www.w3.org/Graphics/SVG/1.1/DTD/svg11.dtd">
<svg version="1.1" id="Capa_1" xmlns="http://www.w3.org/2000/svg" xmlns:xlink="http://www.w3.org/1999/xlink" x="0px" y="0px"
	 width="234.287px" height="234.288px" viewBox="0 0 234.287 234.288" style="enable-background:new 0 0 234.287 234.288;"
	 xml:space="preserve">
<g>
	<g id="_x31_38_59_">
		<g>
			<polygon points="88.778,66.935 72.737,61.388 72.737,61.289 88.778,55.751 88.778,47.708 62.233,57.635 62.233,65.054 
				88.778,74.981 			"/>
			<polygon points="112.916,36.475 104.764,36.475 90.708,75.344 98.855,75.344 			"/>
			<polygon points="141.389,57.635 114.846,47.708 114.846,55.751 130.887,61.289 130.887,61.388 114.846,66.935 114.846,74.981 
				141.389,65.054 			"/>
			<path d="M68.058,112.799c33.372,0,66.739,0,100.112,0c8.389,0,8.389-12.999,0-12.999c-33.373,0-66.74,0-100.112,0
				C59.668,99.8,59.668,112.799,68.058,112.799z"/>
			<path d="M168.17,128.316c-33.373,0-66.74,0-100.112,0c-8.384,0-8.384,12.999,0,12.999c33.372,0,66.739,0,100.112,0
				C176.559,141.315,176.559,128.316,168.17,128.316z"/>
			<path d="M168.17,159.078c-33.373,0-66.74,0-100.112,0c-8.384,0-8.384,13,0,13c33.372,0,66.739,0,100.112,0
				C176.559,172.078,176.559,159.078,168.17,159.078z"/>
			<path d="M168.17,188.114c-33.373,0-66.745,0-100.118,0c-8.378,0-8.378,12.999,0,12.999c33.373,0,66.745,0,100.118,0
				C176.549,201.113,176.549,188.114,168.17,188.114z"/>
			<path d="M173.837,0H26.931v234.288h180.426V32.504L173.837,0z M191.762,218.683H42.53V15.6h123.269v24.75h25.958v178.333H191.762
				z"/>
		</g>
	</g>
</g>
<g>
</g>
<g>
</g>
<g>
</g>
<g>
</g>
<g>
</g>
<g>
</g>
<g>
</g>
<g>
</g>
<g>
</g>
<g>
</g>
<g>
</g>
<g>
</g>
<g>
</g>
<g>
</g>
<g>
</g>
</svg>
